<mxfile host="app.diagrams.net" modified="2024-04-16T09:40:49.978Z" agent="Mozilla/5.0 (Windows NT 10.0; Win64; x64) AppleWebKit/537.36 (KHTML, like Gecko) Chrome/123.0.0.0 Safari/537.36 Edg/123.0.0.0" etag="611OmQ_TV3_7gaW_IvYO" version="24.2.5" type="github" pages="4">
  <diagram name="第 1 页" id="OPNjIxIgqIyAHXuyqbe9">
    <mxGraphModel dx="2027" dy="605" grid="1" gridSize="10" guides="1" tooltips="1" connect="1" arrows="1" fold="1" page="1" pageScale="1" pageWidth="827" pageHeight="1169" math="0" shadow="0">
      <root>
        <mxCell id="0" />
        <mxCell id="1" parent="0" />
        <mxCell id="usf3XOSmTBY8OPDHr092-2" value="Actor" style="shape=umlActor;verticalLabelPosition=bottom;verticalAlign=top;html=1;outlineConnect=0;fillColor=#d5e8d4;strokeColor=#82b366;" parent="1" vertex="1">
          <mxGeometry x="-230" y="260" width="80" height="110" as="geometry" />
        </mxCell>
        <mxCell id="usf3XOSmTBY8OPDHr092-3" value="" style="endArrow=classic;html=1;rounded=0;" parent="1" edge="1">
          <mxGeometry width="50" height="50" relative="1" as="geometry">
            <mxPoint x="-110" y="310" as="sourcePoint" />
            <mxPoint x="50" y="310" as="targetPoint" />
          </mxGeometry>
        </mxCell>
        <mxCell id="usf3XOSmTBY8OPDHr092-6" value="" style="rounded=0;whiteSpace=wrap;html=1;fillColor=#d5e8d4;strokeColor=#82b366;" parent="1" vertex="1">
          <mxGeometry x="80" y="110" width="200" height="370" as="geometry" />
        </mxCell>
        <mxCell id="usf3XOSmTBY8OPDHr092-8" value="&lt;font face=&quot;Comic Sans MS&quot; style=&quot;font-size: 24px;&quot;&gt;&lt;b style=&quot;&quot;&gt;API&lt;/b&gt;&lt;/font&gt;&lt;div&gt;&lt;font face=&quot;Comic Sans MS&quot; size=&quot;3&quot;&gt;&lt;b style=&quot;&quot;&gt;service-engine-Gateway&lt;/b&gt;&lt;/font&gt;&lt;/div&gt;" style="text;html=1;align=center;verticalAlign=middle;whiteSpace=wrap;rounded=0;" parent="1" vertex="1">
          <mxGeometry x="40" y="260" width="290" height="50" as="geometry" />
        </mxCell>
        <mxCell id="usf3XOSmTBY8OPDHr092-9" value="" style="endArrow=classic;html=1;rounded=0;" parent="1" edge="1">
          <mxGeometry width="50" height="50" relative="1" as="geometry">
            <mxPoint x="310" y="300" as="sourcePoint" />
            <mxPoint x="410" y="300" as="targetPoint" />
          </mxGeometry>
        </mxCell>
        <mxCell id="usf3XOSmTBY8OPDHr092-13" value="SpringBoot&lt;div&gt;App&lt;/div&gt;" style="rounded=0;whiteSpace=wrap;html=1;fillColor=#d5e8d4;strokeColor=#82b366;" parent="1" vertex="1">
          <mxGeometry x="464" y="120" width="120" height="60" as="geometry" />
        </mxCell>
        <mxCell id="usf3XOSmTBY8OPDHr092-14" value="SpringBoot&lt;div&gt;App&lt;/div&gt;" style="rounded=0;whiteSpace=wrap;html=1;fillColor=#d5e8d4;strokeColor=#82b366;" parent="1" vertex="1">
          <mxGeometry x="474" y="130" width="120" height="60" as="geometry" />
        </mxCell>
        <mxCell id="usf3XOSmTBY8OPDHr092-15" value="&lt;b&gt;&lt;font face=&quot;Comic Sans MS&quot;&gt;SpringBoot&lt;/font&gt;&lt;/b&gt;&lt;div&gt;&lt;b&gt;&lt;font face=&quot;DIdet0pF6SvNyJA4FFoE&quot;&gt;Apps&lt;/font&gt;&lt;/b&gt;&lt;/div&gt;" style="rounded=0;whiteSpace=wrap;html=1;fillColor=#d5e8d4;strokeColor=#82b366;" parent="1" vertex="1">
          <mxGeometry x="484" y="140" width="120" height="60" as="geometry" />
        </mxCell>
        <mxCell id="usf3XOSmTBY8OPDHr092-16" value="SpringBoot&lt;div&gt;App&lt;/div&gt;" style="rounded=0;whiteSpace=wrap;html=1;fillColor=#d5e8d4;strokeColor=#82b366;" parent="1" vertex="1">
          <mxGeometry x="464" y="260" width="120" height="60" as="geometry" />
        </mxCell>
        <mxCell id="usf3XOSmTBY8OPDHr092-17" value="SpringBoot&lt;div&gt;App&lt;/div&gt;" style="rounded=0;whiteSpace=wrap;html=1;fillColor=#d5e8d4;strokeColor=#82b366;" parent="1" vertex="1">
          <mxGeometry x="474" y="270" width="120" height="60" as="geometry" />
        </mxCell>
        <mxCell id="usf3XOSmTBY8OPDHr092-18" value="&lt;b&gt;&lt;font face=&quot;Comic Sans MS&quot;&gt;SpringBoot&lt;/font&gt;&lt;/b&gt;&lt;div&gt;&lt;b&gt;&lt;font face=&quot;E4-ssiGOFwNttw82jEcN&quot;&gt;Apps&lt;/font&gt;&lt;/b&gt;&lt;/div&gt;" style="rounded=0;whiteSpace=wrap;html=1;fillColor=#d5e8d4;strokeColor=#82b366;" parent="1" vertex="1">
          <mxGeometry x="484" y="280" width="120" height="60" as="geometry" />
        </mxCell>
        <mxCell id="usf3XOSmTBY8OPDHr092-19" value="SpringBoot&lt;div&gt;App&lt;/div&gt;" style="rounded=0;whiteSpace=wrap;html=1;fillColor=#d5e8d4;strokeColor=#82b366;" parent="1" vertex="1">
          <mxGeometry x="464" y="400" width="120" height="60" as="geometry" />
        </mxCell>
        <mxCell id="usf3XOSmTBY8OPDHr092-20" value="SpringBoot&lt;div&gt;App&lt;/div&gt;" style="rounded=0;whiteSpace=wrap;html=1;fillColor=#d5e8d4;strokeColor=#82b366;" parent="1" vertex="1">
          <mxGeometry x="474" y="410" width="120" height="60" as="geometry" />
        </mxCell>
        <mxCell id="usf3XOSmTBY8OPDHr092-21" value="&lt;b&gt;&lt;font face=&quot;Comic Sans MS&quot;&gt;SpringBoot&lt;/font&gt;&lt;/b&gt;&lt;div&gt;&lt;b&gt;&lt;font face=&quot;j0T-t-UFfpxrv3EUAg1I&quot;&gt;Apps&lt;/font&gt;&lt;/b&gt;&lt;/div&gt;" style="rounded=0;whiteSpace=wrap;html=1;fillColor=#d5e8d4;strokeColor=#82b366;" parent="1" vertex="1">
          <mxGeometry x="484" y="420" width="120" height="60" as="geometry" />
        </mxCell>
        <mxCell id="usf3XOSmTBY8OPDHr092-22" value="" style="shape=curlyBracket;whiteSpace=wrap;html=1;rounded=1;labelPosition=left;verticalLabelPosition=middle;align=right;verticalAlign=middle;" parent="1" vertex="1">
          <mxGeometry x="414" y="160" width="20" height="285" as="geometry" />
        </mxCell>
        <mxCell id="usf3XOSmTBY8OPDHr092-23" value="" style="shape=curlyBracket;whiteSpace=wrap;html=1;rounded=1;flipH=1;labelPosition=right;verticalLabelPosition=middle;align=left;verticalAlign=middle;" parent="1" vertex="1">
          <mxGeometry x="654" y="160" width="20" height="285" as="geometry" />
        </mxCell>
        <mxCell id="usf3XOSmTBY8OPDHr092-25" value="&lt;b&gt;&lt;font face=&quot;Comic Sans MS&quot;&gt;serviceComb-service-center&lt;/font&gt;&lt;/b&gt;&lt;div&gt;&lt;b&gt;&lt;font face=&quot;N47eKgGn-eVe7SK77cik&quot;&gt;注册中心&lt;/font&gt;&lt;/b&gt;&lt;/div&gt;" style="rounded=0;whiteSpace=wrap;html=1;fillColor=#d5e8d4;strokeColor=#82b366;" parent="1" vertex="1">
          <mxGeometry x="875" y="142.5" width="170" height="70" as="geometry" />
        </mxCell>
        <mxCell id="usf3XOSmTBY8OPDHr092-26" value="&lt;b&gt;&lt;font face=&quot;Comic Sans MS&quot;&gt;serviceComb-kie&lt;/font&gt;&lt;/b&gt;&lt;div&gt;&lt;b&gt;&lt;font face=&quot;Z_Ryg0JJ6sgyvN5hTMX4&quot;&gt;配置中心&lt;/font&gt;&lt;/b&gt;&lt;/div&gt;" style="rounded=0;whiteSpace=wrap;html=1;fillColor=#d5e8d4;strokeColor=#82b366;" parent="1" vertex="1">
          <mxGeometry x="875" y="240" width="170" height="70" as="geometry" />
        </mxCell>
        <mxCell id="usf3XOSmTBY8OPDHr092-27" value="" style="endArrow=classic;startArrow=classic;html=1;rounded=0;" parent="1" edge="1">
          <mxGeometry width="50" height="50" relative="1" as="geometry">
            <mxPoint x="687" y="302" as="sourcePoint" />
            <mxPoint x="827" y="302" as="targetPoint" />
          </mxGeometry>
        </mxCell>
        <mxCell id="usf3XOSmTBY8OPDHr092-29" value="" style="endArrow=none;html=1;rounded=0;" parent="1" edge="1">
          <mxGeometry width="50" height="50" relative="1" as="geometry">
            <mxPoint x="544" y="740" as="sourcePoint" />
            <mxPoint x="543.5" y="480" as="targetPoint" />
          </mxGeometry>
        </mxCell>
        <mxCell id="usf3XOSmTBY8OPDHr092-36" value="" style="endArrow=none;html=1;rounded=0;" parent="1" edge="1">
          <mxGeometry width="50" height="50" relative="1" as="geometry">
            <mxPoint x="190" y="600" as="sourcePoint" />
            <mxPoint x="900" y="600" as="targetPoint" />
          </mxGeometry>
        </mxCell>
        <mxCell id="usf3XOSmTBY8OPDHr092-37" value="" style="endArrow=none;html=1;rounded=0;" parent="1" edge="1">
          <mxGeometry width="50" height="50" relative="1" as="geometry">
            <mxPoint x="194.5" y="720" as="sourcePoint" />
            <mxPoint x="195" y="600" as="targetPoint" />
          </mxGeometry>
        </mxCell>
        <mxCell id="usf3XOSmTBY8OPDHr092-38" value="&lt;b&gt;openFeign&lt;/b&gt;&lt;div&gt;&lt;b&gt;微服务之间的调用&lt;/b&gt;&lt;/div&gt;" style="rounded=0;whiteSpace=wrap;html=1;fillColor=#d5e8d4;strokeColor=#82b366;" parent="1" vertex="1">
          <mxGeometry x="650" y="720" width="120" height="80" as="geometry" />
        </mxCell>
        <mxCell id="usf3XOSmTBY8OPDHr092-40" value="&lt;b&gt;db&lt;/b&gt;&lt;div&gt;&lt;b&gt;数据持久化&lt;/b&gt;&lt;/div&gt;" style="shape=cylinder3;whiteSpace=wrap;html=1;boundedLbl=1;backgroundOutline=1;size=15;fillColor=#d5e8d4;strokeColor=#82b366;" parent="1" vertex="1">
          <mxGeometry x="490" y="720" width="100" height="80" as="geometry" />
        </mxCell>
        <mxCell id="usf3XOSmTBY8OPDHr092-41" value="" style="endArrow=none;html=1;rounded=0;exitX=0.5;exitY=0;exitDx=0;exitDy=0;exitPerimeter=0;" parent="1" source="usf3XOSmTBY8OPDHr092-42" edge="1">
          <mxGeometry width="50" height="50" relative="1" as="geometry">
            <mxPoint x="384" y="720" as="sourcePoint" />
            <mxPoint x="384" y="600" as="targetPoint" />
          </mxGeometry>
        </mxCell>
        <mxCell id="usf3XOSmTBY8OPDHr092-42" value="&lt;b&gt;redis&lt;/b&gt;&lt;div&gt;&lt;b&gt;缓存&lt;/b&gt;&lt;/div&gt;" style="shape=cylinder3;whiteSpace=wrap;html=1;boundedLbl=1;backgroundOutline=1;size=15;fillColor=#d5e8d4;strokeColor=#82b366;" parent="1" vertex="1">
          <mxGeometry x="334" y="720" width="100" height="80" as="geometry" />
        </mxCell>
        <mxCell id="usf3XOSmTBY8OPDHr092-43" value="&lt;b&gt;消息中间件&lt;/b&gt;&lt;div&gt;&lt;b&gt;kafka，rabbitmq，rocketmq&lt;/b&gt;&lt;/div&gt;" style="rounded=0;whiteSpace=wrap;html=1;fillColor=#d5e8d4;strokeColor=#82b366;" parent="1" vertex="1">
          <mxGeometry x="110" y="720" width="170" height="80" as="geometry" />
        </mxCell>
        <mxCell id="usf3XOSmTBY8OPDHr092-46" value="" style="endArrow=none;html=1;rounded=0;exitX=0.5;exitY=0;exitDx=0;exitDy=0;" parent="1" source="usf3XOSmTBY8OPDHr092-47" edge="1">
          <mxGeometry width="50" height="50" relative="1" as="geometry">
            <mxPoint x="900" y="720" as="sourcePoint" />
            <mxPoint x="900" y="600" as="targetPoint" />
          </mxGeometry>
        </mxCell>
        <mxCell id="usf3XOSmTBY8OPDHr092-47" value="&lt;b&gt;文件存储&lt;/b&gt;&lt;div&gt;&lt;b&gt;华为OBS&lt;/b&gt;&lt;/div&gt;" style="rounded=0;whiteSpace=wrap;html=1;fillColor=#d5e8d4;strokeColor=#82b366;" parent="1" vertex="1">
          <mxGeometry x="840" y="720" width="120" height="80" as="geometry" />
        </mxCell>
        <mxCell id="usf3XOSmTBY8OPDHr092-48" value="" style="endArrow=none;html=1;rounded=0;" parent="1" edge="1">
          <mxGeometry width="50" height="50" relative="1" as="geometry">
            <mxPoint x="709" y="720" as="sourcePoint" />
            <mxPoint x="708.5" y="600" as="targetPoint" />
          </mxGeometry>
        </mxCell>
        <mxCell id="usf3XOSmTBY8OPDHr092-51" value="&lt;b&gt;任务调度&lt;/b&gt;&lt;div&gt;&lt;b&gt;quartz&lt;/b&gt;&lt;/div&gt;" style="rounded=0;whiteSpace=wrap;html=1;fillColor=#d5e8d4;strokeColor=#82b366;" parent="1" vertex="1">
          <mxGeometry x="875" y="360" width="170" height="70" as="geometry" />
        </mxCell>
        <mxCell id="usf3XOSmTBY8OPDHr092-52" value="" style="endArrow=classic;html=1;rounded=0;" parent="1" edge="1">
          <mxGeometry width="50" height="50" relative="1" as="geometry">
            <mxPoint x="410" y="350" as="sourcePoint" />
            <mxPoint x="310" y="350" as="targetPoint" />
          </mxGeometry>
        </mxCell>
        <mxCell id="usf3XOSmTBY8OPDHr092-53" value="" style="endArrow=classic;html=1;rounded=0;" parent="1" edge="1">
          <mxGeometry width="50" height="50" relative="1" as="geometry">
            <mxPoint x="50" y="340" as="sourcePoint" />
            <mxPoint x="-120" y="340" as="targetPoint" />
          </mxGeometry>
        </mxCell>
      </root>
    </mxGraphModel>
  </diagram>
  <diagram id="6k_bm4dADfIdebR3rj6X" name="工厂建模中的关系图">
    <mxGraphModel dx="1200" dy="1774" grid="1" gridSize="10" guides="1" tooltips="1" connect="1" arrows="1" fold="1" page="1" pageScale="1" pageWidth="827" pageHeight="1169" math="0" shadow="0">
      <root>
        <mxCell id="0" />
        <mxCell id="1" parent="0" />
        <mxCell id="3L20it446CBFqR3LY-qO-1" value="&lt;font style=&quot;font-size: 24px;&quot;&gt;工厂&lt;/font&gt;" style="ellipse;whiteSpace=wrap;html=1;fillColor=#d5e8d4;strokeColor=#82b366;sketch=1;curveFitting=1;jiggle=2;shadow=1;" parent="1" vertex="1">
          <mxGeometry x="377.5" y="40" width="120" height="80" as="geometry" />
        </mxCell>
        <mxCell id="3L20it446CBFqR3LY-qO-2" value="" style="shape=flexArrow;endArrow=classic;html=1;rounded=1;fillColor=#dae8fc;strokeColor=#6C8EBF;sketch=1;curveFitting=1;jiggle=2;shadow=1;" parent="1" edge="1">
          <mxGeometry width="50" height="50" relative="1" as="geometry">
            <mxPoint x="439.5" y="130" as="sourcePoint" />
            <mxPoint x="439.5" y="210" as="targetPoint" />
          </mxGeometry>
        </mxCell>
        <mxCell id="3L20it446CBFqR3LY-qO-3" value="" style="shape=curlyBracket;whiteSpace=wrap;html=1;rounded=1;labelPosition=left;verticalLabelPosition=middle;align=right;verticalAlign=middle;rotation=90;sketch=1;curveFitting=1;jiggle=2;shadow=1;" parent="1" vertex="1">
          <mxGeometry x="427.5" y="-122.5" width="20" height="705" as="geometry" />
        </mxCell>
        <mxCell id="3L20it446CBFqR3LY-qO-6" value="车间" style="ellipse;whiteSpace=wrap;html=1;aspect=fixed;fillColor=#fff2cc;strokeColor=#d6b656;sketch=1;curveFitting=1;jiggle=2;shadow=1;" parent="1" vertex="1">
          <mxGeometry x="50" y="250" width="80" height="80" as="geometry" />
        </mxCell>
        <mxCell id="3L20it446CBFqR3LY-qO-7" value="&lt;b style=&quot;font-family: &amp;quot;Comic Sans MS&amp;quot;; font-size: 14px;&quot;&gt;获取工厂建模的树节点（接口：&lt;/b&gt;&lt;font face=&quot;Comic Sans MS&quot;&gt;&lt;span style=&quot;font-size: 14px;&quot;&gt;&lt;b&gt;gettreenodeinfos）&lt;/b&gt;&lt;/span&gt;&lt;/font&gt;" style="text;html=1;align=center;verticalAlign=middle;whiteSpace=wrap;rounded=1;sketch=1;curveFitting=1;jiggle=2;fillColor=#cdeb8b;strokeColor=#36393d;glass=1;shadow=1;" parent="1" vertex="1">
          <mxGeometry x="280" y="-280" width="380" height="80" as="geometry" />
        </mxCell>
        <mxCell id="3L20it446CBFqR3LY-qO-12" value="车间" style="ellipse;whiteSpace=wrap;html=1;aspect=fixed;fillColor=#fff2cc;strokeColor=#d6b656;sketch=1;curveFitting=1;jiggle=2;shadow=1;" parent="1" vertex="1">
          <mxGeometry x="210" y="250" width="80" height="80" as="geometry" />
        </mxCell>
        <mxCell id="3L20it446CBFqR3LY-qO-14" value="车间" style="ellipse;whiteSpace=wrap;html=1;aspect=fixed;fillColor=#fff2cc;strokeColor=#d6b656;sketch=1;curveFitting=1;jiggle=2;shadow=1;" parent="1" vertex="1">
          <mxGeometry x="377.5" y="250" width="80" height="80" as="geometry" />
        </mxCell>
        <mxCell id="3L20it446CBFqR3LY-qO-17" value="" style="shape=flexArrow;endArrow=classic;html=1;rounded=1;strokeColor=default;fillColor=#6C8EBF;shadow=1;sketch=1;curveFitting=1;jiggle=2;" parent="1" edge="1">
          <mxGeometry width="50" height="50" relative="1" as="geometry">
            <mxPoint x="409" y="340" as="sourcePoint" />
            <mxPoint x="409" y="440" as="targetPoint" />
          </mxGeometry>
        </mxCell>
        <mxCell id="3L20it446CBFqR3LY-qO-18" value="线体" style="ellipse;whiteSpace=wrap;html=1;aspect=fixed;fillColor=#e1d5e7;strokeColor=#9673a6;sketch=1;curveFitting=1;jiggle=2;shadow=1;" parent="1" vertex="1">
          <mxGeometry x="180" y="490" width="80" height="80" as="geometry" />
        </mxCell>
        <mxCell id="3L20it446CBFqR3LY-qO-19" value="" style="shape=curlyBracket;whiteSpace=wrap;html=1;rounded=1;labelPosition=left;verticalLabelPosition=middle;align=right;verticalAlign=middle;rotation=90;sketch=1;curveFitting=1;jiggle=2;shadow=1;" parent="1" vertex="1">
          <mxGeometry x="390" y="280" width="40" height="370" as="geometry" />
        </mxCell>
        <mxCell id="3L20it446CBFqR3LY-qO-23" value="" style="shape=curlyBracket;whiteSpace=wrap;html=1;rounded=1;labelPosition=left;verticalLabelPosition=middle;align=right;verticalAlign=middle;rotation=90;" parent="1" vertex="1">
          <mxGeometry x="390" y="610" width="20" height="220" as="geometry" />
        </mxCell>
        <mxCell id="3L20it446CBFqR3LY-qO-24" value="avi" style="ellipse;whiteSpace=wrap;html=1;aspect=fixed;fillColor=#d5e8d4;strokeColor=#82b366;sketch=1;curveFitting=1;jiggle=2;shadow=1;" parent="1" vertex="1">
          <mxGeometry x="410" y="730" width="60" height="60" as="geometry" />
        </mxCell>
        <mxCell id="3L20it446CBFqR3LY-qO-25" value="avi" style="ellipse;whiteSpace=wrap;html=1;aspect=fixed;fillColor=#d5e8d4;strokeColor=#82b366;sketch=1;curveFitting=1;jiggle=2;shadow=1;" parent="1" vertex="1">
          <mxGeometry x="480" y="730" width="60" height="60" as="geometry" />
        </mxCell>
        <mxCell id="3L20it446CBFqR3LY-qO-28" style="edgeStyle=orthogonalEdgeStyle;rounded=0;orthogonalLoop=1;jettySize=auto;html=1;" parent="1" source="3L20it446CBFqR3LY-qO-26" edge="1">
          <mxGeometry relative="1" as="geometry">
            <mxPoint x="370" y="840" as="targetPoint" />
          </mxGeometry>
        </mxCell>
        <mxCell id="3L20it446CBFqR3LY-qO-26" value="工位" style="ellipse;whiteSpace=wrap;html=1;aspect=fixed;fillColor=#ffcc99;strokeColor=#36393d;sketch=1;curveFitting=1;jiggle=2;shadow=1;" parent="1" vertex="1">
          <mxGeometry x="340" y="730" width="60" height="60" as="geometry" />
        </mxCell>
        <mxCell id="3L20it446CBFqR3LY-qO-27" value="工位" style="ellipse;whiteSpace=wrap;html=1;aspect=fixed;fillColor=#ffcc99;strokeColor=#36393d;sketch=1;curveFitting=1;jiggle=2;shadow=1;" parent="1" vertex="1">
          <mxGeometry x="260" y="730" width="60" height="60" as="geometry" />
        </mxCell>
        <mxCell id="3L20it446CBFqR3LY-qO-29" value="岗位" style="ellipse;whiteSpace=wrap;html=1;aspect=fixed;fillColor=#cdeb8b;strokeColor=#36393d;sketch=1;curveFitting=1;jiggle=2;shadow=1;" parent="1" vertex="1">
          <mxGeometry x="280" y="860" width="50" height="50" as="geometry" />
        </mxCell>
        <mxCell id="3L20it446CBFqR3LY-qO-30" value="" style="shape=curlyBracket;whiteSpace=wrap;html=1;rounded=1;labelPosition=left;verticalLabelPosition=middle;align=right;verticalAlign=middle;rotation=90;" parent="1" vertex="1">
          <mxGeometry x="360" y="790" width="20" height="120" as="geometry" />
        </mxCell>
        <mxCell id="3L20it446CBFqR3LY-qO-33" value="工位和AVI是同级别的" style="text;html=1;align=center;verticalAlign=middle;whiteSpace=wrap;rounded=0;fillColor=#e3c800;fontColor=#000000;strokeColor=#B09500;" parent="1" vertex="1">
          <mxGeometry x="185" y="630" width="210" height="55" as="geometry" />
        </mxCell>
        <mxCell id="3L20it446CBFqR3LY-qO-34" value="" style="shape=flexArrow;endArrow=classic;html=1;rounded=1;fillColor=#445978;shadow=1;sketch=1;curveFitting=1;jiggle=2;" parent="1" edge="1">
          <mxGeometry width="50" height="50" relative="1" as="geometry">
            <mxPoint x="404.5" y="580" as="sourcePoint" />
            <mxPoint x="405" y="710" as="targetPoint" />
          </mxGeometry>
        </mxCell>
        <mxCell id="3L20it446CBFqR3LY-qO-35" value="avi没有子节点" style="shape=callout;whiteSpace=wrap;html=1;perimeter=calloutPerimeter;position2=0;size=30;position=0.08;fillColor=#e3c800;fontColor=#000000;strokeColor=#B09500;" parent="1" vertex="1">
          <mxGeometry x="497.5" y="650" width="130" height="80" as="geometry" />
        </mxCell>
        <mxCell id="3L20it446CBFqR3LY-qO-36" value="&lt;h1 style=&quot;margin-top: 0px;&quot;&gt;在工厂建模，获取树节点时：是一层层遍历。不是直接给出整个树节点信息，用过2个参数来查询该节点下的子节点信息：id（节点id），type（节点类型），不同类型的子节点信息不在同一张表结构当中。因此，要根据节点的类型，来查询不同的表。&lt;/h1&gt;&lt;div&gt;&lt;br&gt;&lt;/div&gt;" style="text;html=1;whiteSpace=wrap;overflow=hidden;rounded=0;fillColor=#B0E3E6;strokeColor=#B0E3E6;" parent="1" vertex="1">
          <mxGeometry x="30" y="970" width="900" height="110" as="geometry" />
        </mxCell>
        <mxCell id="3L20it446CBFqR3LY-qO-38" value="工厂[PM_PLANT]" style="text;html=1;align=center;verticalAlign=middle;whiteSpace=wrap;rounded=0;fillColor=#E6583C;strokeColor=#E6583C;" parent="1" vertex="1">
          <mxGeometry x="880" y="57.5" width="100" height="25" as="geometry" />
        </mxCell>
        <mxCell id="3L20it446CBFqR3LY-qO-39" value="车间[PM_SHOP]" style="text;html=1;align=center;verticalAlign=middle;whiteSpace=wrap;rounded=0;fillColor=#E6583C;strokeColor=#E6583C;" parent="1" vertex="1">
          <mxGeometry x="850" y="270" width="100" height="25" as="geometry" />
        </mxCell>
        <mxCell id="3L20it446CBFqR3LY-qO-40" value="线体[PM_AREA]" style="text;html=1;align=center;verticalAlign=middle;whiteSpace=wrap;rounded=0;fillColor=#E6583C;strokeColor=#E6583C;" parent="1" vertex="1">
          <mxGeometry x="670" y="517.5" width="100" height="25" as="geometry" />
        </mxCell>
        <mxCell id="3L20it446CBFqR3LY-qO-42" value="avi[PM_AVI]" style="text;html=1;align=center;verticalAlign=middle;whiteSpace=wrap;rounded=0;fillColor=#E6583C;strokeColor=#E6583C;" parent="1" vertex="1">
          <mxGeometry x="560" y="747.5" width="100" height="25" as="geometry" />
        </mxCell>
        <mxCell id="3L20it446CBFqR3LY-qO-44" value="工位[PM_STATION]" style="text;html=1;align=center;verticalAlign=middle;whiteSpace=wrap;rounded=0;fillColor=#E6583C;strokeColor=#E6583C;" parent="1" vertex="1">
          <mxGeometry x="120" y="747.5" width="130" height="25" as="geometry" />
        </mxCell>
        <mxCell id="3L20it446CBFqR3LY-qO-45" value="岗位[PM_WORKPLACE]" style="text;html=1;align=center;verticalAlign=middle;whiteSpace=wrap;rounded=0;fillColor=#E6583C;strokeColor=#E6583C;" parent="1" vertex="1">
          <mxGeometry x="80" y="872.5" width="185" height="25" as="geometry" />
        </mxCell>
        <mxCell id="3L20it446CBFqR3LY-qO-46" value="车间" style="ellipse;whiteSpace=wrap;html=1;aspect=fixed;fillColor=#fff2cc;strokeColor=#d6b656;sketch=1;curveFitting=1;jiggle=2;shadow=1;" parent="1" vertex="1">
          <mxGeometry x="560" y="250" width="80" height="80" as="geometry" />
        </mxCell>
        <mxCell id="3L20it446CBFqR3LY-qO-47" value="车间" style="ellipse;whiteSpace=wrap;html=1;aspect=fixed;fillColor=#fff2cc;strokeColor=#d6b656;sketch=1;curveFitting=1;jiggle=2;shadow=1;" parent="1" vertex="1">
          <mxGeometry x="740" y="260" width="80" height="80" as="geometry" />
        </mxCell>
        <mxCell id="3L20it446CBFqR3LY-qO-48" value="线体" style="ellipse;whiteSpace=wrap;html=1;aspect=fixed;fillColor=#e1d5e7;strokeColor=#9673a6;sketch=1;curveFitting=1;jiggle=2;shadow=1;" parent="1" vertex="1">
          <mxGeometry x="360" y="490" width="80" height="80" as="geometry" />
        </mxCell>
        <mxCell id="3L20it446CBFqR3LY-qO-49" value="线体" style="ellipse;whiteSpace=wrap;html=1;aspect=fixed;fillColor=#e1d5e7;strokeColor=#9673a6;sketch=1;curveFitting=1;jiggle=2;shadow=1;" parent="1" vertex="1">
          <mxGeometry x="550" y="490" width="80" height="80" as="geometry" />
        </mxCell>
        <mxCell id="3L20it446CBFqR3LY-qO-50" value="岗位" style="ellipse;whiteSpace=wrap;html=1;aspect=fixed;fillColor=#cdeb8b;strokeColor=#36393d;sketch=1;curveFitting=1;jiggle=2;shadow=1;" parent="1" vertex="1">
          <mxGeometry x="340" y="860" width="50" height="50" as="geometry" />
        </mxCell>
        <mxCell id="3L20it446CBFqR3LY-qO-51" value="岗位" style="ellipse;whiteSpace=wrap;html=1;aspect=fixed;fillColor=#cdeb8b;strokeColor=#36393d;sketch=1;curveFitting=1;jiggle=2;shadow=1;" parent="1" vertex="1">
          <mxGeometry x="407.5" y="860" width="50" height="50" as="geometry" />
        </mxCell>
        <mxCell id="3L20it446CBFqR3LY-qO-52" value="" style="shape=flexArrow;endArrow=classic;html=1;rounded=1;fillColor=#dae8fc;strokeColor=#6C8EBF;sketch=1;curveFitting=1;jiggle=2;shadow=1;" parent="1" edge="1">
          <mxGeometry width="50" height="50" relative="1" as="geometry">
            <mxPoint x="457.5" y="-190" as="sourcePoint" />
            <mxPoint x="457.5" y="-110" as="targetPoint" />
          </mxGeometry>
        </mxCell>
        <mxCell id="3L20it446CBFqR3LY-qO-53" value="&lt;font style=&quot;font-size: 24px;&quot;&gt;工厂&lt;/font&gt;" style="ellipse;whiteSpace=wrap;html=1;fillColor=#d5e8d4;strokeColor=#82b366;sketch=1;curveFitting=1;jiggle=2;shadow=1;" parent="1" vertex="1">
          <mxGeometry x="80" y="30" width="120" height="80" as="geometry" />
        </mxCell>
        <mxCell id="3L20it446CBFqR3LY-qO-54" value="&lt;font style=&quot;font-size: 24px;&quot;&gt;工厂&lt;/font&gt;" style="ellipse;whiteSpace=wrap;html=1;fillColor=#d5e8d4;strokeColor=#82b366;sketch=1;curveFitting=1;jiggle=2;shadow=1;" parent="1" vertex="1">
          <mxGeometry x="720" y="40" width="120" height="80" as="geometry" />
        </mxCell>
        <mxCell id="3L20it446CBFqR3LY-qO-55" value="" style="shape=curlyBracket;whiteSpace=wrap;html=1;rounded=1;labelPosition=left;verticalLabelPosition=middle;align=right;verticalAlign=middle;rotation=90;sketch=1;curveFitting=1;jiggle=2;shadow=1;" parent="1" vertex="1">
          <mxGeometry x="402.25" y="-368.25" width="106" height="700" as="geometry" />
        </mxCell>
      </root>
    </mxGraphModel>
  </diagram>
  <diagram id="7tX8Ga9f-G_debcfEIC2" name="工厂模型关系图 ">
    <mxGraphModel dx="2461" dy="1840" grid="1" gridSize="10" guides="1" tooltips="1" connect="1" arrows="1" fold="1" page="1" pageScale="1" pageWidth="827" pageHeight="1169" math="0" shadow="0">
      <root>
        <mxCell id="0" />
        <mxCell id="1" parent="0" />
        <mxCell id="0zmM_CSyaJLoQhMqd-2j-13" style="edgeStyle=orthogonalEdgeStyle;rounded=0;orthogonalLoop=1;jettySize=auto;html=1;" parent="1" source="0zmM_CSyaJLoQhMqd-2j-11" edge="1">
          <mxGeometry relative="1" as="geometry">
            <mxPoint x="30" y="220" as="targetPoint" />
          </mxGeometry>
        </mxCell>
        <mxCell id="0zmM_CSyaJLoQhMqd-2j-11" value="&lt;font style=&quot;font-size: 18px;&quot;&gt;plant&lt;/font&gt;" style="rounded=1;whiteSpace=wrap;html=1;fillColor=#3F6E0F;fontColor=#ffffff;strokeColor=#2D7600;" parent="1" vertex="1">
          <mxGeometry x="-158.75" y="190" width="90" height="60" as="geometry" />
        </mxCell>
        <mxCell id="0zmM_CSyaJLoQhMqd-2j-14" value="&lt;font style=&quot;font-size: 18px;&quot;&gt;area&lt;/font&gt;" style="rounded=1;whiteSpace=wrap;html=1;fillColor=#3F6E0F;fontColor=#ffffff;strokeColor=#2D7600;" parent="1" vertex="1">
          <mxGeometry x="220" y="180" width="90" height="60" as="geometry" />
        </mxCell>
        <mxCell id="0zmM_CSyaJLoQhMqd-2j-15" value="&lt;font style=&quot;font-size: 18px;&quot;&gt;area&lt;/font&gt;" style="rounded=1;whiteSpace=wrap;html=1;fillColor=#3F6E0F;fontColor=#ffffff;strokeColor=#2D7600;" parent="1" vertex="1">
          <mxGeometry x="230" y="190" width="90" height="60" as="geometry" />
        </mxCell>
        <mxCell id="0zmM_CSyaJLoQhMqd-2j-16" value="&lt;font style=&quot;font-size: 18px;&quot;&gt;area&lt;/font&gt;" style="rounded=1;whiteSpace=wrap;html=1;fillColor=#3F6E0F;fontColor=#ffffff;strokeColor=#2D7600;" parent="1" vertex="1">
          <mxGeometry x="240" y="200" width="90" height="60" as="geometry" />
        </mxCell>
        <mxCell id="0zmM_CSyaJLoQhMqd-2j-17" value="&lt;font style=&quot;font-size: 18px;&quot;&gt;area&lt;/font&gt;" style="rounded=1;whiteSpace=wrap;html=1;fillColor=#3F6E0F;fontColor=#ffffff;strokeColor=#2D7600;" parent="1" vertex="1">
          <mxGeometry x="250" y="210" width="90" height="60" as="geometry" />
        </mxCell>
        <mxCell id="0zmM_CSyaJLoQhMqd-2j-18" style="edgeStyle=orthogonalEdgeStyle;rounded=0;orthogonalLoop=1;jettySize=auto;html=1;" parent="1" edge="1">
          <mxGeometry relative="1" as="geometry">
            <mxPoint x="400" y="219.5" as="targetPoint" />
            <mxPoint x="340" y="219.5" as="sourcePoint" />
          </mxGeometry>
        </mxCell>
        <mxCell id="0zmM_CSyaJLoQhMqd-2j-19" value="" style="shape=curlyBracket;whiteSpace=wrap;html=1;rounded=1;labelPosition=left;verticalLabelPosition=middle;align=right;verticalAlign=middle;" parent="1" vertex="1">
          <mxGeometry x="404" y="140" width="20" height="160" as="geometry" />
        </mxCell>
        <mxCell id="0zmM_CSyaJLoQhMqd-2j-20" value="&lt;font style=&quot;font-size: 18px;&quot;&gt;avi&lt;/font&gt;" style="rounded=1;whiteSpace=wrap;html=1;fillColor=#3F6E0F;fontColor=#ffffff;strokeColor=#2D7600;" parent="1" vertex="1">
          <mxGeometry x="430" y="120" width="90" height="60" as="geometry" />
        </mxCell>
        <mxCell id="0zmM_CSyaJLoQhMqd-2j-21" value="&lt;font style=&quot;font-size: 18px;&quot;&gt;avi&lt;/font&gt;" style="rounded=1;whiteSpace=wrap;html=1;fillColor=#3F6E0F;fontColor=#ffffff;strokeColor=#2D7600;" parent="1" vertex="1">
          <mxGeometry x="440" y="130" width="90" height="60" as="geometry" />
        </mxCell>
        <mxCell id="0zmM_CSyaJLoQhMqd-2j-22" value="&lt;font style=&quot;font-size: 18px;&quot;&gt;avi&lt;/font&gt;" style="rounded=1;whiteSpace=wrap;html=1;fillColor=#3F6E0F;fontColor=#ffffff;strokeColor=#2D7600;" parent="1" vertex="1">
          <mxGeometry x="450" y="140" width="90" height="60" as="geometry" />
        </mxCell>
        <mxCell id="0zmM_CSyaJLoQhMqd-2j-23" value="&lt;font style=&quot;font-size: 18px;&quot;&gt;avi&lt;/font&gt;" style="rounded=1;whiteSpace=wrap;html=1;fillColor=#3F6E0F;fontColor=#ffffff;strokeColor=#2D7600;" parent="1" vertex="1">
          <mxGeometry x="424" y="260" width="90" height="60" as="geometry" />
        </mxCell>
        <mxCell id="0zmM_CSyaJLoQhMqd-2j-24" value="&lt;font style=&quot;font-size: 18px;&quot;&gt;avi&lt;/font&gt;" style="rounded=1;whiteSpace=wrap;html=1;fillColor=#3F6E0F;fontColor=#ffffff;strokeColor=#2D7600;" parent="1" vertex="1">
          <mxGeometry x="434" y="270" width="90" height="60" as="geometry" />
        </mxCell>
        <mxCell id="0zmM_CSyaJLoQhMqd-2j-25" value="&lt;font style=&quot;font-size: 18px;&quot;&gt;station&lt;/font&gt;" style="rounded=1;whiteSpace=wrap;html=1;fillColor=#3F6E0F;fontColor=#ffffff;strokeColor=#2D7600;" parent="1" vertex="1">
          <mxGeometry x="444" y="280" width="90" height="60" as="geometry" />
        </mxCell>
        <mxCell id="0zmM_CSyaJLoQhMqd-2j-26" value="" style="endArrow=classic;html=1;rounded=0;" parent="1" edge="1">
          <mxGeometry width="50" height="50" relative="1" as="geometry">
            <mxPoint x="534" y="309.5" as="sourcePoint" />
            <mxPoint x="634" y="309.5" as="targetPoint" />
          </mxGeometry>
        </mxCell>
        <mxCell id="0zmM_CSyaJLoQhMqd-2j-27" value="&lt;font style=&quot;font-size: 18px;&quot;&gt;workplace&lt;/font&gt;" style="rounded=1;whiteSpace=wrap;html=1;fillColor=#3F6E0F;fontColor=#ffffff;strokeColor=#2D7600;" parent="1" vertex="1">
          <mxGeometry x="630" y="260" width="90" height="60" as="geometry" />
        </mxCell>
        <mxCell id="0zmM_CSyaJLoQhMqd-2j-28" value="&lt;font style=&quot;font-size: 18px;&quot;&gt;workplace&lt;/font&gt;" style="rounded=1;whiteSpace=wrap;html=1;fillColor=#3F6E0F;fontColor=#ffffff;strokeColor=#2D7600;" parent="1" vertex="1">
          <mxGeometry x="640" y="270" width="90" height="60" as="geometry" />
        </mxCell>
        <mxCell id="0zmM_CSyaJLoQhMqd-2j-29" value="&lt;font style=&quot;font-size: 18px;&quot;&gt;workplace&lt;/font&gt;" style="rounded=1;whiteSpace=wrap;html=1;fillColor=#3F6E0F;fontColor=#ffffff;strokeColor=#2D7600;" parent="1" vertex="1">
          <mxGeometry x="650" y="280" width="90" height="60" as="geometry" />
        </mxCell>
        <mxCell id="0zmM_CSyaJLoQhMqd-2j-30" value="&lt;font style=&quot;font-size: 18px;&quot;&gt;workplace&lt;/font&gt;" style="rounded=1;whiteSpace=wrap;html=1;fillColor=#3F6E0F;fontColor=#ffffff;strokeColor=#2D7600;" parent="1" vertex="1">
          <mxGeometry x="660" y="290" width="90" height="60" as="geometry" />
        </mxCell>
        <mxCell id="0zmM_CSyaJLoQhMqd-2j-31" value="" style="line;strokeWidth=2;html=1;" parent="1" vertex="1">
          <mxGeometry x="750" y="305" width="160" height="10" as="geometry" />
        </mxCell>
        <mxCell id="0zmM_CSyaJLoQhMqd-2j-32" value="" style="shape=curlyBracket;whiteSpace=wrap;html=1;rounded=1;labelPosition=left;verticalLabelPosition=middle;align=right;verticalAlign=middle;" parent="1" vertex="1">
          <mxGeometry x="910" y="40" width="20" height="540" as="geometry" />
        </mxCell>
        <mxCell id="0zmM_CSyaJLoQhMqd-2j-33" value="&lt;font style=&quot;font-size: 18px;&quot;&gt;ot&lt;/font&gt;" style="rounded=1;whiteSpace=wrap;html=1;fillColor=#3F6E0F;fontColor=#ffffff;strokeColor=#2D7600;" parent="1" vertex="1">
          <mxGeometry x="940" y="30" width="90" height="60" as="geometry" />
        </mxCell>
        <mxCell id="0zmM_CSyaJLoQhMqd-2j-34" value="&lt;font style=&quot;font-size: 18px;&quot;&gt;ot&lt;/font&gt;" style="rounded=1;whiteSpace=wrap;html=1;fillColor=#3F6E0F;fontColor=#ffffff;strokeColor=#2D7600;" parent="1" vertex="1">
          <mxGeometry x="950" y="40" width="90" height="60" as="geometry" />
        </mxCell>
        <mxCell id="0zmM_CSyaJLoQhMqd-2j-35" value="&lt;font style=&quot;font-size: 18px;&quot;&gt;ot&lt;/font&gt;" style="rounded=1;whiteSpace=wrap;html=1;fillColor=#3F6E0F;fontColor=#ffffff;strokeColor=#2D7600;" parent="1" vertex="1">
          <mxGeometry x="960" y="50" width="90" height="60" as="geometry" />
        </mxCell>
        <mxCell id="0zmM_CSyaJLoQhMqd-2j-36" value="&lt;font style=&quot;font-size: 18px;&quot;&gt;ot&lt;/font&gt;" style="rounded=1;whiteSpace=wrap;html=1;fillColor=#3F6E0F;fontColor=#ffffff;strokeColor=#2D7600;" parent="1" vertex="1">
          <mxGeometry x="970" y="60" width="90" height="60" as="geometry" />
        </mxCell>
        <mxCell id="0zmM_CSyaJLoQhMqd-2j-37" value="&lt;font style=&quot;font-size: 18px;&quot;&gt;pullcord&lt;/font&gt;&lt;span style=&quot;color: rgba(0, 0, 0, 0); font-family: monospace; font-size: 0px; text-align: start; text-wrap: nowrap;&quot;&gt;%3CmxGraphModel%3E%3Croot%3E%3CmxCell%20id%3D%220%22%2F%3E%3CmxCell%20id%3D%221%22%20parent%3D%220%22%2F%3E%3CmxCell%20id%3D%222%22%20value%3D%22%26lt%3Bfont%20style%3D%26quot%3Bfont-size%3A%2018px%3B%26quot%3B%26gt%3Bot%26lt%3B%2Ffont%26gt%3B%22%20style%3D%22rounded%3D1%3BwhiteSpace%3Dwrap%3Bhtml%3D1%3BfillColor%3D%233F6E0F%3BfontColor%3D%23ffffff%3BstrokeColor%3D%232D7600%3B%22%20vertex%3D%221%22%20parent%3D%221%22%3E%3CmxGeometry%20x%3D%22970%22%20y%3D%22110%22%20width%3D%2290%22%20height%3D%2260%22%20as%3D%22geometry%22%2F%3E%3C%2FmxCell%3E%3C%2Froot%3E%3C%2FmxGraphModel%3E&lt;/span&gt;&lt;span style=&quot;color: rgba(0, 0, 0, 0); font-family: monospace; font-size: 0px; text-align: start; text-wrap: nowrap;&quot;&gt;%3CmxGraphModel%3E%3Croot%3E%3CmxCell%20id%3D%220%22%2F%3E%3CmxCell%20id%3D%221%22%20parent%3D%220%22%2F%3E%3CmxCell%20id%3D%222%22%20value%3D%22%26lt%3Bfont%20style%3D%26quot%3Bfont-size%3A%2018px%3B%26quot%3B%26gt%3Bot%26lt%3B%2Ffont%26gt%3B%22%20style%3D%22rounded%3D1%3BwhiteSpace%3Dwrap%3Bhtml%3D1%3BfillColor%3D%233F6E0F%3BfontColor%3D%23ffffff%3BstrokeColor%3D%232D7600%3B%22%20vertex%3D%221%22%20parent%3D%221%22%3E%3CmxGeometry%20x%3D%22970%22%20y%3D%22110%22%20width%3D%2290%22%20height%3D%2260%22%20as%3D%22geometry%22%2F%3E%3C%2FmxCell%3E%3C%2Froot%3E%3C%2FmxGraphModel%3E&lt;/span&gt;&lt;span style=&quot;color: rgba(0, 0, 0, 0); font-family: monospace; font-size: 0px; text-align: start; text-wrap: nowrap;&quot;&gt;%3CmxGraphModel%3E%3Croot%3E%3CmxCell%20id%3D%220%22%2F%3E%3CmxCell%20id%3D%221%22%20parent%3D%220%22%2F%3E%3CmxCell%20id%3D%222%22%20value%3D%22%26lt%3Bfont%20style%3D%26quot%3Bfont-size%3A%2018px%3B%26quot%3B%26gt%3Bot%26lt%3B%2Ffont%26gt%3B%22%20style%3D%22rounded%3D1%3BwhiteSpace%3Dwrap%3Bhtml%3D1%3BfillColor%3D%233F6E0F%3BfontColor%3D%23ffffff%3BstrokeColor%3D%232D7600%3B%22%20vertex%3D%221%22%20parent%3D%221%22%3E%3CmxGeometry%20x%3D%22970%22%20y%3D%22110%22%20width%3D%2290%22%20height%3D%2260%22%20as%3D%22geometry%22%2F%3E%3C%2FmxCell%3E%3C%2Froot%3E%3C%2FmxGraphModel%3E&lt;/span&gt;" style="rounded=1;whiteSpace=wrap;html=1;fillColor=#3F6E0F;fontColor=#ffffff;strokeColor=#2D7600;" parent="1" vertex="1">
          <mxGeometry x="945" y="225" width="90" height="60" as="geometry" />
        </mxCell>
        <mxCell id="0zmM_CSyaJLoQhMqd-2j-38" value="&lt;font style=&quot;font-size: 18px;&quot;&gt;pullcord&lt;/font&gt;&lt;span style=&quot;color: rgba(0, 0, 0, 0); font-family: monospace; font-size: 0px; text-align: start; text-wrap: nowrap;&quot;&gt;%3CmxGraphModel%3E%3Croot%3E%3CmxCell%20id%3D%220%22%2F%3E%3CmxCell%20id%3D%221%22%20parent%3D%220%22%2F%3E%3CmxCell%20id%3D%222%22%20value%3D%22%26lt%3Bfont%20style%3D%26quot%3Bfont-size%3A%2018px%3B%26quot%3B%26gt%3Bot%26lt%3B%2Ffont%26gt%3B%22%20style%3D%22rounded%3D1%3BwhiteSpace%3Dwrap%3Bhtml%3D1%3BfillColor%3D%233F6E0F%3BfontColor%3D%23ffffff%3BstrokeColor%3D%232D7600%3B%22%20vertex%3D%221%22%20parent%3D%221%22%3E%3CmxGeometry%20x%3D%22970%22%20y%3D%22110%22%20width%3D%2290%22%20height%3D%2260%22%20as%3D%22geometry%22%2F%3E%3C%2FmxCell%3E%3C%2Froot%3E%3C%2FmxGraphModel%3E&lt;/span&gt;&lt;span style=&quot;color: rgba(0, 0, 0, 0); font-family: monospace; font-size: 0px; text-align: start; text-wrap: nowrap;&quot;&gt;%3CmxGraphModel%3E%3Croot%3E%3CmxCell%20id%3D%220%22%2F%3E%3CmxCell%20id%3D%221%22%20parent%3D%220%22%2F%3E%3CmxCell%20id%3D%222%22%20value%3D%22%26lt%3Bfont%20style%3D%26quot%3Bfont-size%3A%2018px%3B%26quot%3B%26gt%3Bot%26lt%3B%2Ffont%26gt%3B%22%20style%3D%22rounded%3D1%3BwhiteSpace%3Dwrap%3Bhtml%3D1%3BfillColor%3D%233F6E0F%3BfontColor%3D%23ffffff%3BstrokeColor%3D%232D7600%3B%22%20vertex%3D%221%22%20parent%3D%221%22%3E%3CmxGeometry%20x%3D%22970%22%20y%3D%22110%22%20width%3D%2290%22%20height%3D%2260%22%20as%3D%22geometry%22%2F%3E%3C%2FmxCell%3E%3C%2Froot%3E%3C%2FmxGraphModel%3E&lt;/span&gt;&lt;span style=&quot;color: rgba(0, 0, 0, 0); font-family: monospace; font-size: 0px; text-align: start; text-wrap: nowrap;&quot;&gt;%3CmxGraphModel%3E%3Croot%3E%3CmxCell%20id%3D%220%22%2F%3E%3CmxCell%20id%3D%221%22%20parent%3D%220%22%2F%3E%3CmxCell%20id%3D%222%22%20value%3D%22%26lt%3Bfont%20style%3D%26quot%3Bfont-size%3A%2018px%3B%26quot%3B%26gt%3Bot%26lt%3B%2Ffont%26gt%3B%22%20style%3D%22rounded%3D1%3BwhiteSpace%3Dwrap%3Bhtml%3D1%3BfillColor%3D%233F6E0F%3BfontColor%3D%23ffffff%3BstrokeColor%3D%232D7600%3B%22%20vertex%3D%221%22%20parent%3D%221%22%3E%3CmxGeometry%20x%3D%22970%22%20y%3D%22110%22%20width%3D%2290%22%20height%3D%2260%22%20as%3D%22geometry%22%2F%3E%3C%2FmxCell%3E%3C%2Froot%3E%3C%2FmxGraphModel%3E&lt;/span&gt;" style="rounded=1;whiteSpace=wrap;html=1;fillColor=#3F6E0F;fontColor=#ffffff;strokeColor=#2D7600;" parent="1" vertex="1">
          <mxGeometry x="955" y="235" width="90" height="60" as="geometry" />
        </mxCell>
        <mxCell id="0zmM_CSyaJLoQhMqd-2j-39" value="&lt;font style=&quot;font-size: 18px;&quot;&gt;pullcord&lt;/font&gt;&lt;span style=&quot;color: rgba(0, 0, 0, 0); font-family: monospace; font-size: 0px; text-align: start; text-wrap: nowrap;&quot;&gt;%3CmxGraphModel%3E%3Croot%3E%3CmxCell%20id%3D%220%22%2F%3E%3CmxCell%20id%3D%221%22%20parent%3D%220%22%2F%3E%3CmxCell%20id%3D%222%22%20value%3D%22%26lt%3Bfont%20style%3D%26quot%3Bfont-size%3A%2018px%3B%26quot%3B%26gt%3Bot%26lt%3B%2Ffont%26gt%3B%22%20style%3D%22rounded%3D1%3BwhiteSpace%3Dwrap%3Bhtml%3D1%3BfillColor%3D%233F6E0F%3BfontColor%3D%23ffffff%3BstrokeColor%3D%232D7600%3B%22%20vertex%3D%221%22%20parent%3D%221%22%3E%3CmxGeometry%20x%3D%22970%22%20y%3D%22110%22%20width%3D%2290%22%20height%3D%2260%22%20as%3D%22geometry%22%2F%3E%3C%2FmxCell%3E%3C%2Froot%3E%3C%2FmxGraphModel%3E&lt;/span&gt;&lt;span style=&quot;color: rgba(0, 0, 0, 0); font-family: monospace; font-size: 0px; text-align: start; text-wrap: nowrap;&quot;&gt;%3CmxGraphModel%3E%3Croot%3E%3CmxCell%20id%3D%220%22%2F%3E%3CmxCell%20id%3D%221%22%20parent%3D%220%22%2F%3E%3CmxCell%20id%3D%222%22%20value%3D%22%26lt%3Bfont%20style%3D%26quot%3Bfont-size%3A%2018px%3B%26quot%3B%26gt%3Bot%26lt%3B%2Ffont%26gt%3B%22%20style%3D%22rounded%3D1%3BwhiteSpace%3Dwrap%3Bhtml%3D1%3BfillColor%3D%233F6E0F%3BfontColor%3D%23ffffff%3BstrokeColor%3D%232D7600%3B%22%20vertex%3D%221%22%20parent%3D%221%22%3E%3CmxGeometry%20x%3D%22970%22%20y%3D%22110%22%20width%3D%2290%22%20height%3D%2260%22%20as%3D%22geometry%22%2F%3E%3C%2FmxCell%3E%3C%2Froot%3E%3C%2FmxGraphModel%3E&lt;/span&gt;&lt;span style=&quot;color: rgba(0, 0, 0, 0); font-family: monospace; font-size: 0px; text-align: start; text-wrap: nowrap;&quot;&gt;%3CmxGraphModel%3E%3Croot%3E%3CmxCell%20id%3D%220%22%2F%3E%3CmxCell%20id%3D%221%22%20parent%3D%220%22%2F%3E%3CmxCell%20id%3D%222%22%20value%3D%22%26lt%3Bfont%20style%3D%26quot%3Bfont-size%3A%2018px%3B%26quot%3B%26gt%3Bot%26lt%3B%2Ffont%26gt%3B%22%20style%3D%22rounded%3D1%3BwhiteSpace%3Dwrap%3Bhtml%3D1%3BfillColor%3D%233F6E0F%3BfontColor%3D%23ffffff%3BstrokeColor%3D%232D7600%3B%22%20vertex%3D%221%22%20parent%3D%221%22%3E%3CmxGeometry%20x%3D%22970%22%20y%3D%22110%22%20width%3D%2290%22%20height%3D%2260%22%20as%3D%22geometry%22%2F%3E%3C%2FmxCell%3E%3C%2Froot%3E%3C%2FmxGraphModel%3E&lt;/span&gt;" style="rounded=1;whiteSpace=wrap;html=1;fillColor=#3F6E0F;fontColor=#ffffff;strokeColor=#2D7600;" parent="1" vertex="1">
          <mxGeometry x="965" y="245" width="90" height="60" as="geometry" />
        </mxCell>
        <mxCell id="0zmM_CSyaJLoQhMqd-2j-40" value="&lt;font style=&quot;font-size: 18px;&quot;&gt;pullcord&lt;/font&gt;&lt;span style=&quot;color: rgba(0, 0, 0, 0); font-family: monospace; font-size: 0px; text-align: start; text-wrap: nowrap;&quot;&gt;%3CmxGraphModel%3E%3Croot%3E%3CmxCell%20id%3D%220%22%2F%3E%3CmxCell%20id%3D%221%22%20parent%3D%220%22%2F%3E%3CmxCell%20id%3D%222%22%20value%3D%22%26lt%3Bfont%20style%3D%26quot%3Bfont-size%3A%2018px%3B%26quot%3B%26gt%3Bot%26lt%3B%2Ffont%26gt%3B%22%20style%3D%22rounded%3D1%3BwhiteSpace%3Dwrap%3Bhtml%3D1%3BfillColor%3D%233F6E0F%3BfontColor%3D%23ffffff%3BstrokeColor%3D%232D7600%3B%22%20vertex%3D%221%22%20parent%3D%221%22%3E%3CmxGeometry%20x%3D%22970%22%20y%3D%22110%22%20width%3D%2290%22%20height%3D%2260%22%20as%3D%22geometry%22%2F%3E%3C%2FmxCell%3E%3C%2Froot%3E%3C%2FmxGraphModel%3E&lt;/span&gt;&lt;span style=&quot;color: rgba(0, 0, 0, 0); font-family: monospace; font-size: 0px; text-align: start; text-wrap: nowrap;&quot;&gt;%3CmxGraphModel%3E%3Croot%3E%3CmxCell%20id%3D%220%22%2F%3E%3CmxCell%20id%3D%221%22%20parent%3D%220%22%2F%3E%3CmxCell%20id%3D%222%22%20value%3D%22%26lt%3Bfont%20style%3D%26quot%3Bfont-size%3A%2018px%3B%26quot%3B%26gt%3Bot%26lt%3B%2Ffont%26gt%3B%22%20style%3D%22rounded%3D1%3BwhiteSpace%3Dwrap%3Bhtml%3D1%3BfillColor%3D%233F6E0F%3BfontColor%3D%23ffffff%3BstrokeColor%3D%232D7600%3B%22%20vertex%3D%221%22%20parent%3D%221%22%3E%3CmxGeometry%20x%3D%22970%22%20y%3D%22110%22%20width%3D%2290%22%20height%3D%2260%22%20as%3D%22geometry%22%2F%3E%3C%2FmxCell%3E%3C%2Froot%3E%3C%2FmxGraphModel%3E&lt;/span&gt;&lt;span style=&quot;color: rgba(0, 0, 0, 0); font-family: monospace; font-size: 0px; text-align: start; text-wrap: nowrap;&quot;&gt;%3CmxGraphModel%3E%3Croot%3E%3CmxCell%20id%3D%220%22%2F%3E%3CmxCell%20id%3D%221%22%20parent%3D%220%22%2F%3E%3CmxCell%20id%3D%222%22%20value%3D%22%26lt%3Bfont%20style%3D%26quot%3Bfont-size%3A%2018px%3B%26quot%3B%26gt%3Bot%26lt%3B%2Ffont%26gt%3B%22%20style%3D%22rounded%3D1%3BwhiteSpace%3Dwrap%3Bhtml%3D1%3BfillColor%3D%233F6E0F%3BfontColor%3D%23ffffff%3BstrokeColor%3D%232D7600%3B%22%20vertex%3D%221%22%20parent%3D%221%22%3E%3CmxGeometry%20x%3D%22970%22%20y%3D%22110%22%20width%3D%2290%22%20height%3D%2260%22%20as%3D%22geometry%22%2F%3E%3C%2FmxCell%3E%3C%2Froot%3E%3C%2FmxGraphModel%3E&lt;/span&gt;" style="rounded=1;whiteSpace=wrap;html=1;fillColor=#3F6E0F;fontColor=#ffffff;strokeColor=#2D7600;" parent="1" vertex="1">
          <mxGeometry x="975" y="255" width="90" height="60" as="geometry" />
        </mxCell>
        <mxCell id="0zmM_CSyaJLoQhMqd-2j-41" value="&lt;span style=&quot;font-size: 18px;&quot;&gt;wo&lt;/span&gt;" style="rounded=1;whiteSpace=wrap;html=1;fillColor=#3F6E0F;fontColor=#ffffff;strokeColor=#2D7600;" parent="1" vertex="1">
          <mxGeometry x="960" y="390" width="90" height="60" as="geometry" />
        </mxCell>
        <mxCell id="0zmM_CSyaJLoQhMqd-2j-42" value="&lt;span style=&quot;font-size: 18px;&quot;&gt;wo&lt;/span&gt;" style="rounded=1;whiteSpace=wrap;html=1;fillColor=#3F6E0F;fontColor=#ffffff;strokeColor=#2D7600;" parent="1" vertex="1">
          <mxGeometry x="970" y="400" width="90" height="60" as="geometry" />
        </mxCell>
        <mxCell id="0zmM_CSyaJLoQhMqd-2j-43" value="&lt;span style=&quot;font-size: 18px;&quot;&gt;wo&lt;/span&gt;" style="rounded=1;whiteSpace=wrap;html=1;fillColor=#3F6E0F;fontColor=#ffffff;strokeColor=#2D7600;" parent="1" vertex="1">
          <mxGeometry x="980" y="410" width="90" height="60" as="geometry" />
        </mxCell>
        <mxCell id="0zmM_CSyaJLoQhMqd-2j-44" value="&lt;span style=&quot;font-size: 18px;&quot;&gt;wo&lt;/span&gt;" style="rounded=1;whiteSpace=wrap;html=1;fillColor=#3F6E0F;fontColor=#ffffff;strokeColor=#2D7600;" parent="1" vertex="1">
          <mxGeometry x="990" y="420" width="90" height="60" as="geometry" />
        </mxCell>
        <mxCell id="0zmM_CSyaJLoQhMqd-2j-45" value="&lt;span style=&quot;font-size: 18px;&quot;&gt;tool&lt;/span&gt;" style="rounded=1;whiteSpace=wrap;html=1;fillColor=#3F6E0F;fontColor=#ffffff;strokeColor=#2D7600;" parent="1" vertex="1">
          <mxGeometry x="960" y="555" width="90" height="60" as="geometry" />
        </mxCell>
        <mxCell id="0zmM_CSyaJLoQhMqd-2j-46" value="&lt;span style=&quot;font-size: 18px;&quot;&gt;tool&lt;/span&gt;" style="rounded=1;whiteSpace=wrap;html=1;fillColor=#3F6E0F;fontColor=#ffffff;strokeColor=#2D7600;" parent="1" vertex="1">
          <mxGeometry x="970" y="565" width="90" height="60" as="geometry" />
        </mxCell>
        <mxCell id="0zmM_CSyaJLoQhMqd-2j-47" value="&lt;span style=&quot;font-size: 18px;&quot;&gt;tool&lt;/span&gt;" style="rounded=1;whiteSpace=wrap;html=1;fillColor=#3F6E0F;fontColor=#ffffff;strokeColor=#2D7600;" parent="1" vertex="1">
          <mxGeometry x="980" y="575" width="90" height="60" as="geometry" />
        </mxCell>
        <mxCell id="0zmM_CSyaJLoQhMqd-2j-48" value="&lt;span style=&quot;font-size: 18px;&quot;&gt;tool&lt;/span&gt;" style="rounded=1;whiteSpace=wrap;html=1;fillColor=#3F6E0F;fontColor=#ffffff;strokeColor=#2D7600;" parent="1" vertex="1">
          <mxGeometry x="990" y="585" width="90" height="60" as="geometry" />
        </mxCell>
        <mxCell id="0zmM_CSyaJLoQhMqd-2j-49" value="&lt;span style=&quot;font-size: 18px;&quot;&gt;tool&lt;/span&gt;" style="rounded=1;whiteSpace=wrap;html=1;fillColor=#3F6E0F;fontColor=#ffffff;strokeColor=#2D7600;" parent="1" vertex="1">
          <mxGeometry x="1181" y="560" width="90" height="60" as="geometry" />
        </mxCell>
        <mxCell id="0zmM_CSyaJLoQhMqd-2j-51" value="" style="endArrow=classic;html=1;rounded=0;" parent="1" edge="1">
          <mxGeometry width="50" height="50" relative="1" as="geometry">
            <mxPoint x="1080" y="609.5" as="sourcePoint" />
            <mxPoint x="1180" y="609.5" as="targetPoint" />
          </mxGeometry>
        </mxCell>
        <mxCell id="0zmM_CSyaJLoQhMqd-2j-52" value="&lt;span style=&quot;font-size: 18px;&quot;&gt;tool&lt;/span&gt;" style="rounded=1;whiteSpace=wrap;html=1;fillColor=#3F6E0F;fontColor=#ffffff;strokeColor=#2D7600;" parent="1" vertex="1">
          <mxGeometry x="1191" y="570" width="90" height="60" as="geometry" />
        </mxCell>
        <mxCell id="0zmM_CSyaJLoQhMqd-2j-53" value="&lt;span style=&quot;font-size: 18px;&quot;&gt;tool&lt;/span&gt;" style="rounded=1;whiteSpace=wrap;html=1;fillColor=#3F6E0F;fontColor=#ffffff;strokeColor=#2D7600;" parent="1" vertex="1">
          <mxGeometry x="1201" y="580" width="90" height="60" as="geometry" />
        </mxCell>
        <mxCell id="0zmM_CSyaJLoQhMqd-2j-54" value="&lt;span style=&quot;font-size: 18px;&quot;&gt;toolJob&lt;/span&gt;" style="rounded=1;whiteSpace=wrap;html=1;fillColor=#3F6E0F;fontColor=#ffffff;strokeColor=#2D7600;" parent="1" vertex="1">
          <mxGeometry x="1211" y="590" width="90" height="60" as="geometry" />
        </mxCell>
        <mxCell id="0zmM_CSyaJLoQhMqd-2j-55" value="工具作业[PM_TOOL_JOB]" style="text;html=1;align=center;verticalAlign=middle;whiteSpace=wrap;rounded=1;fillColor=#f0a30a;fontColor=#000000;strokeColor=#BD7000;glass=1;shadow=1;" parent="1" vertex="1">
          <mxGeometry x="1216" y="520" width="124" height="30" as="geometry" />
        </mxCell>
        <mxCell id="0zmM_CSyaJLoQhMqd-2j-56" value="工具[PM_TOOL]" style="text;html=1;align=center;verticalAlign=middle;whiteSpace=wrap;rounded=1;fillColor=#f0a30a;fontColor=#000000;strokeColor=#BD7000;glass=1;shadow=1;" parent="1" vertex="1">
          <mxGeometry x="955" y="510" width="115" height="30" as="geometry" />
        </mxCell>
        <mxCell id="0zmM_CSyaJLoQhMqd-2j-57" value="岗位操作[PM_WO]" style="text;html=1;align=center;verticalAlign=middle;whiteSpace=wrap;rounded=1;fillColor=#f0a30a;fontColor=#000000;strokeColor=#BD7000;glass=1;shadow=1;" parent="1" vertex="1">
          <mxGeometry x="952.5" y="340" width="125" height="30" as="geometry" />
        </mxCell>
        <mxCell id="0zmM_CSyaJLoQhMqd-2j-58" value="拉绳[PM_PULLCORD]" style="text;html=1;align=center;verticalAlign=middle;whiteSpace=wrap;rounded=1;fillColor=#f0a30a;fontColor=#000000;strokeColor=#BD7000;glass=1;shadow=1;" parent="1" vertex="1">
          <mxGeometry x="942.5" y="185" width="115" height="30" as="geometry" />
        </mxCell>
        <mxCell id="0zmM_CSyaJLoQhMqd-2j-59" value="ot屏[PM_OT]" style="text;html=1;align=center;verticalAlign=middle;whiteSpace=wrap;rounded=1;fillColor=#f0a30a;fontColor=#000000;strokeColor=#BD7000;glass=1;shadow=1;" parent="1" vertex="1">
          <mxGeometry x="932.5" y="-10" width="115" height="30" as="geometry" />
        </mxCell>
        <mxCell id="0zmM_CSyaJLoQhMqd-2j-60" value="岗位[PM_WORKPLACE]" style="text;html=1;align=center;verticalAlign=middle;whiteSpace=wrap;rounded=1;fillColor=#f0a30a;fontColor=#000000;strokeColor=#BD7000;glass=1;shadow=1;" parent="1" vertex="1">
          <mxGeometry x="660" y="215" width="120" height="30" as="geometry" />
        </mxCell>
        <mxCell id="0zmM_CSyaJLoQhMqd-2j-62" value="工位[PM_STATION]" style="text;html=1;align=center;verticalAlign=middle;whiteSpace=wrap;rounded=1;fillColor=#f0a30a;fontColor=#000000;strokeColor=#BD7000;glass=1;shadow=1;" parent="1" vertex="1">
          <mxGeometry x="435" y="225" width="100" height="30" as="geometry" />
        </mxCell>
        <mxCell id="0zmM_CSyaJLoQhMqd-2j-63" value="avi[PM_AVI]" style="text;html=1;align=center;verticalAlign=middle;whiteSpace=wrap;rounded=1;fillColor=#f0a30a;fontColor=#000000;strokeColor=#BD7000;glass=1;shadow=1;" parent="1" vertex="1">
          <mxGeometry x="445" y="80" width="95" height="30" as="geometry" />
        </mxCell>
        <mxCell id="0zmM_CSyaJLoQhMqd-2j-64" value="线体[PM_AREA]" style="text;html=1;align=center;verticalAlign=middle;whiteSpace=wrap;rounded=1;fillColor=#f0a30a;fontColor=#000000;strokeColor=#BD7000;glass=1;shadow=1;" parent="1" vertex="1">
          <mxGeometry x="225" y="135" width="100" height="30" as="geometry" />
        </mxCell>
        <mxCell id="0zmM_CSyaJLoQhMqd-2j-65" value="工厂[&lt;span style=&quot;background-color: initial;&quot;&gt;PM_PLANT]&lt;/span&gt;" style="text;html=1;align=center;verticalAlign=middle;whiteSpace=wrap;rounded=1;fillColor=#f0a30a;fontColor=#000000;strokeColor=#BD7000;glass=1;shadow=1;" parent="1" vertex="1">
          <mxGeometry x="-170" y="120" width="112.5" height="35" as="geometry" />
        </mxCell>
        <mxCell id="0zmM_CSyaJLoQhMqd-2j-66" value="&lt;font style=&quot;font-size: 18px;&quot;&gt;plant&lt;/font&gt;" style="rounded=1;whiteSpace=wrap;html=1;fillColor=#3F6E0F;fontColor=#ffffff;strokeColor=#2D7600;" parent="1" vertex="1">
          <mxGeometry x="30" y="180" width="90" height="60" as="geometry" />
        </mxCell>
        <mxCell id="0zmM_CSyaJLoQhMqd-2j-67" value="&lt;font style=&quot;font-size: 18px;&quot;&gt;plant&lt;/font&gt;" style="rounded=1;whiteSpace=wrap;html=1;fillColor=#3F6E0F;fontColor=#ffffff;strokeColor=#2D7600;" parent="1" vertex="1">
          <mxGeometry x="40" y="190" width="90" height="60" as="geometry" />
        </mxCell>
        <mxCell id="0zmM_CSyaJLoQhMqd-2j-68" value="&lt;font style=&quot;font-size: 18px;&quot;&gt;plant&lt;/font&gt;" style="rounded=1;whiteSpace=wrap;html=1;fillColor=#3F6E0F;fontColor=#ffffff;strokeColor=#2D7600;" parent="1" vertex="1">
          <mxGeometry x="50" y="200" width="90" height="60" as="geometry" />
        </mxCell>
        <mxCell id="0zmM_CSyaJLoQhMqd-2j-69" value="&lt;font style=&quot;font-size: 18px;&quot;&gt;shop&lt;/font&gt;" style="rounded=1;whiteSpace=wrap;html=1;fillColor=#3F6E0F;fontColor=#ffffff;strokeColor=#2D7600;" parent="1" vertex="1">
          <mxGeometry x="60" y="210" width="90" height="60" as="geometry" />
        </mxCell>
        <mxCell id="0zmM_CSyaJLoQhMqd-2j-70" style="edgeStyle=orthogonalEdgeStyle;rounded=0;orthogonalLoop=1;jettySize=auto;html=1;" parent="1" edge="1">
          <mxGeometry relative="1" as="geometry">
            <mxPoint x="220" y="224.5" as="targetPoint" />
            <mxPoint x="160" y="224.5" as="sourcePoint" />
          </mxGeometry>
        </mxCell>
        <mxCell id="0zmM_CSyaJLoQhMqd-2j-71" value="车间[PM_SHOP]" style="text;html=1;align=center;verticalAlign=middle;whiteSpace=wrap;rounded=1;fillColor=#f0a30a;fontColor=#000000;strokeColor=#BD7000;glass=1;shadow=1;" parent="1" vertex="1">
          <mxGeometry x="30" y="135" width="100" height="30" as="geometry" />
        </mxCell>
      </root>
    </mxGraphModel>
  </diagram>
  <diagram id="aHSgWL90bC1GWuPBIzWR" name="第 4 页">
    <mxGraphModel dx="1200" dy="605" grid="1" gridSize="10" guides="1" tooltips="1" connect="1" arrows="1" fold="1" page="1" pageScale="1" pageWidth="827" pageHeight="1169" math="0" shadow="0">
      <root>
        <mxCell id="0" />
        <mxCell id="1" parent="0" />
      </root>
    </mxGraphModel>
  </diagram>
</mxfile>
